<?xml version="1.0" standalone="no"?>
<!DOCTYPE svg PUBLIC "-//W3C//DTD SVG 20010904//EN"
 "http://www.w3.org/TR/2001/REC-SVG-20010904/DTD/svg10.dtd">
<svg version="1.0" xmlns="http://www.w3.org/2000/svg"
 width="192.000000pt" height="192.000000pt" viewBox="0 0 192.000000 192.000000"
 preserveAspectRatio="xMidYMid meet">
<metadata>
Created by potrace 1.14, written by Peter Selinger 2001-2017
</metadata>
<g transform="translate(0.000000,192.000000) scale(0.100000,-0.100000)"
fill="#000000" stroke="none">
<path d="M999 1886 c-2 -2 -47 -6 -99 -10 -109 -7 -178 -23 -267 -59 -34 -14
-64 -22 -67 -19 -3 3 -6 0 -6 -6 0 -7 -4 -12 -10 -12 -12 0 -105 -57 -140 -85
-156 -127 -250 -260 -319 -450 -22 -61 -37 -153 -40 -240 -2 -49 -5 -93 -8
-97 -2 -5 0 -8 6 -8 6 0 8 -6 6 -13 -3 -7 -1 -35 5 -62 6 -28 12 -61 14 -75 3
-14 12 -47 21 -75 55 -163 155 -307 286 -414 87 -71 102 -81 116 -81 7 0 13
-4 13 -8 0 -5 17 -16 38 -25 89 -39 118 -51 130 -53 8 -1 21 -6 30 -10 9 -4
22 -8 27 -8 6 -1 28 -5 50 -9 91 -17 223 -23 285 -13 23 4 92 16 115 20 32 6
151 50 156 58 3 5 9 9 13 8 11 -2 118 58 156 88 171 132 296 321 346 522 20
81 26 299 11 375 -4 22 -10 49 -12 60 -2 11 -4 21 -5 23 -2 1 -3 5 -4 10 -11
48 -55 154 -69 163 -5 3 -8 10 -6 14 1 4 -18 37 -41 73 -58 89 -178 209 -265
264 -64 40 -181 98 -209 102 -6 1 -15 4 -21 7 -9 6 -48 15 -105 26 -8 1 -36 4
-61 6 -25 2 -51 7 -56 10 -6 4 -12 5 -14 3z m81 -130 c30 -4 84 -16 120 -28
62 -20 179 -74 190 -87 3 -3 25 -20 49 -36 90 -61 170 -153 232 -270 41 -77
80 -194 83 -253 1 -20 4 -42 7 -47 4 -9 4 -130 -1 -130 0 0 -3 -22 -5 -49 -15
-185 -148 -410 -319 -535 -199 -147 -467 -192 -702 -120 -60 18 -199 83 -214
99 -3 3 -22 18 -43 33 -105 79 -200 203 -246 322 -13 33 -27 69 -32 80 -4 11
-10 34 -14 50 -3 17 -8 44 -11 60 -15 75 -3 296 17 303 5 2 7 7 4 12 -14 23
82 226 142 300 44 53 124 128 172 161 99 68 251 128 338 134 18 1 35 4 37 6 6
6 132 3 196 -5z"/>
<path d="M877 1664 c-1 -2 -15 -5 -30 -8 -46 -8 -130 -51 -163 -83 -55 -54
-81 -126 -86 -238 0 -19 13 -90 24 -125 30 -96 92 -177 157 -201 37 -15 107
-22 136 -15 14 4 32 20 41 38 26 50 97 116 150 139 106 46 255 25 390 -55 52
-30 153 -116 137 -116 -3 0 0 -7 7 -15 22 -27 29 -16 24 38 -18 201 -135 404
-298 516 -51 35 -156 89 -187 95 -13 3 -44 10 -69 17 -39 9 -226 20 -233 13z
m112 -286 c41 -43 12 -108 -47 -108 -16 0 -37 9 -47 20 -10 11 -15 20 -11 20
4 0 2 9 -4 19 -8 15 -5 25 11 43 28 32 72 35 98 6z"/>
<path d="M483 1472 c-57 -56 -120 -137 -121 -156 0 -5 -4 -12 -9 -15 -12 -8
-43 -76 -43 -94 0 -9 -4 -18 -9 -21 -16 -10 -35 -131 -35 -221 0 -91 20 -211
35 -221 5 -3 9 -12 9 -21 0 -22 29 -81 71 -144 106 -158 267 -196 428 -102 58
34 152 130 176 179 28 58 29 151 3 205 -12 24 -23 46 -26 49 -2 3 -34 6 -70 7
-87 2 -116 8 -175 41 -57 30 -108 88 -137 155 -12 26 -20 48 -20 49 1 2 -3 16
-9 31 -24 61 -33 174 -20 236 13 63 18 81 24 91 17 28 -20 3 -72 -48z m216
-700 c17 -17 17 -71 -1 -88 -7 -7 -25 -16 -40 -19 -52 -13 -93 56 -63 106 18
28 76 29 104 1z"/>
<path d="M1178 1118 c-7 -3 -16 -4 -20 -2 -4 3 -8 0 -8 -5 0 -6 -9 -11 -20
-11 -11 0 -20 -4 -20 -8 0 -5 -10 -14 -23 -21 -23 -12 -72 -76 -73 -95 0 -6 7
-22 17 -36 32 -49 56 -135 54 -194 -6 -124 -117 -271 -260 -343 -85 -43 -107
-50 -165 -53 -25 -1 -25 -1 5 -17 41 -22 126 -52 172 -60 56 -9 193 -10 233
-2 19 4 46 10 60 13 52 9 220 84 220 98 0 4 5 8 10 8 13 0 23 8 93 75 65 62
150 186 156 228 1 4 1 8 2 10 21 69 10 184 -21 223 -7 8 -9 14 -6 14 4 0 -15
22 -43 49 -60 58 -182 121 -249 127 -15 1 -27 3 -27 4 0 6 -78 4 -87 -2z m169
-287 c17 -1 40 -51 36 -77 -5 -26 -55 -56 -80 -47 -26 9 -53 43 -53 65 0 26
44 67 66 63 11 -2 25 -4 31 -4z"/>
</g>
</svg>
